# xmcd
#
# Track frame offsets:
#	150
#	5352
#	22137
#	40710
#	54041
#	66590
#	86930
#	103367
#	113031
#	141516
#	172855
#	201539
#	225253
#	236270
#
# Disc length: 3362 seconds
#
# Revision: 1
# Processed by: cddbd v1.5.2PL0 Copyright (c) Steve Scherf et al.
# Submitted via: audiograbber 1.83.01
#
DISCID=bb0d200e
DTITLE=The Pine Box Boys - Tails From The Emancipated Head
DYEAR=2011
DGENRE=Bluegrass
TTITLE0=Introduction
TTITLE1=The Theme from the Emancipated Head
TTITLE2=Pretty Little Girl
TTITLE3=Frankenstein
TTITLE4=I Was A Teenage Necro
TTITLE5=Waltzing Through the Graveyard
TTITLE6=Live Brains
TTITLE7=No Room Left for Barbara
TTITLE8=Confusion Hill?
TTITLE9=The Weeper
TTITLE10=The Doomer
TTITLE11=Blood
TTITLE12=AM Radio Floating in Blood
TTITLE13=The Funeral
EXTD=
EXTT0=
EXTT1=
EXTT2=
EXTT3=
EXTT4=
EXTT5=
EXTT6=
EXTT7=
EXTT8=
EXTT9=
EXTT10=
EXTT11=
EXTT12=
EXTT13=
PLAYORDER=
